<svg width="35" height="31" viewBox="0 0 35 31" fill="none" xmlns="http://www.w3.org/2000/svg">
<g clip-path="url(#clip0)">
<path d="M0 13.5625V30.0313C0 30.5665 0.391562 31 0.875 31H5.25V11.625H1.75C0.783672 11.625 0 12.4926 0 13.5625ZM19.6875 10.6563H18.375V8.23438C18.375 7.96676 18.1792 7.75001 17.9375 7.75001H17.0625C16.8208 7.75001 16.625 7.96676 16.625 8.23438V12.1094C16.625 12.377 16.8208 12.5938 17.0625 12.5938H19.6875C19.9292 12.5938 20.125 12.377 20.125 12.1094V11.1406C20.125 10.873 19.9292 10.6563 19.6875 10.6563ZM27.2207 6.78368L18.4707 0.325142C18.1832 0.113126 17.8455 0 17.5 0C17.1545 0 16.8168 0.113126 16.5293 0.325142L7.7793 6.78368C7.53963 6.96058 7.34311 7.20024 7.20716 7.4814C7.07122 7.76256 7.00006 8.07653 7 8.39544V31H14V22.2813C14 21.746 14.3916 21.3125 14.875 21.3125H20.125C20.6084 21.3125 21 21.746 21 22.2813V31H28V8.39604C28 7.74819 27.7074 7.14272 27.2207 6.78368ZM17.5 15.5C15.0839 15.5 13.125 13.3312 13.125 10.6563C13.125 7.98129 15.0839 5.81251 17.5 5.81251C19.9161 5.81251 21.875 7.98129 21.875 10.6563C21.875 13.3312 19.9161 15.5 17.5 15.5ZM33.25 11.625H29.75V31H34.125C34.6084 31 35 30.5665 35 30.0313V13.5625C35 12.4926 34.2163 11.625 33.25 11.625Z" fill="white"/>
</g>
<defs>
<clipPath id="clip0">
<rect width="35" height="31" fill="white"/>
</clipPath>
</defs>
</svg>
