<svg width="35" height="28" viewBox="0 0 35 28" fill="none" xmlns="http://www.w3.org/2000/svg">
<g clip-path="url(#clip0)">
<path d="M11.3746 19.25C11.2439 19.25 11.1132 19.2691 10.9885 19.3096C10.2798 19.5398 9.53436 19.6875 8.7496 19.6875C7.96483 19.6875 7.21944 19.5398 6.51015 19.3096C6.38546 19.2691 6.2553 19.25 6.1246 19.25C2.73069 19.25 -0.0184468 22.0106 -0.000399935 25.4089C0.00725631 26.845 1.18796 28 2.6246 28H14.8746C16.3112 28 17.4919 26.845 17.4996 25.4089C17.5176 22.0106 14.7685 19.25 11.3746 19.25ZM8.7496 17.5C11.6491 17.5 13.9996 15.1495 13.9996 12.25C13.9996 9.35047 11.6491 7 8.7496 7C5.85007 7 3.4996 9.35047 3.4996 12.25C3.4996 15.1495 5.85007 17.5 8.7496 17.5ZM32.3746 0H11.3746C9.92702 0 8.7496 1.2168 8.7496 2.71195V5.25C10.0304 5.25 11.216 5.62078 12.2496 6.22344V3.5H31.4996V19.25H27.9996V15.75H20.9996V19.25H16.8302C17.8748 20.1627 18.6415 21.368 19.0008 22.75H32.3746C33.8222 22.75 34.9996 21.5332 34.9996 20.038V2.71195C34.9996 1.2168 33.8222 0 32.3746 0Z" fill="white"/>
</g>
<defs>
<clipPath id="clip0">
<rect width="35" height="28" fill="white"/>
</clipPath>
</defs>
</svg>
