<svg width="35" height="35" viewBox="0 0 35 35" fill="none" xmlns="http://www.w3.org/2000/svg">
<path d="M35 21.2916C35 22.1666 33.25 22.7499 31.2083 23.0416C29.8958 20.5624 27.2708 18.6666 24.2083 17.3541C24.5 16.9166 24.7917 16.6249 25.0833 16.1874H26.25C30.7708 16.0416 35 18.8124 35 21.2916ZM9.91667 16.0416H8.75C4.22917 16.0416 0 18.8124 0 21.2916C0 22.1666 1.75 22.7499 3.79167 23.0416C5.10417 20.5624 7.72917 18.6666 10.7917 17.3541L9.91667 16.0416ZM17.5 17.4999C20.7083 17.4999 23.3333 14.8749 23.3333 11.6666C23.3333 8.45825 20.7083 5.83325 17.5 5.83325C14.2917 5.83325 11.6667 8.45825 11.6667 11.6666C11.6667 14.8749 14.2917 17.4999 17.5 17.4999ZM17.5 18.9583C11.5208 18.9583 5.83333 22.7499 5.83333 26.2499C5.83333 29.1666 17.5 29.1666 17.5 29.1666C17.5 29.1666 29.1667 29.1666 29.1667 26.2499C29.1667 22.7499 23.4792 18.9583 17.5 18.9583ZM25.8125 14.5833H26.25C28.7292 14.5833 30.625 12.6874 30.625 10.2083C30.625 7.72908 28.7292 5.83325 26.25 5.83325C25.5208 5.83325 24.9375 5.97909 24.3542 6.27075C25.5208 7.72909 26.25 9.62492 26.25 11.6666C26.25 12.6874 26.1042 13.7083 25.8125 14.5833ZM8.75 14.5833H9.1875C8.89583 13.7083 8.75 12.6874 8.75 11.6666C8.75 9.62492 9.47917 7.72909 10.6458 6.27075C10.0625 5.97909 9.47917 5.83325 8.75 5.83325C6.27083 5.83325 4.375 7.72908 4.375 10.2083C4.375 12.6874 6.27083 14.5833 8.75 14.5833Z" fill="white"/>
</svg>
